<svg xmlns="http://www.w3.org/2000/svg" width="16.779" height="16.78" viewBox="0 0 16.779 16.78">
  <defs>
    <style>
      .cls-1 {
        fill: #ccc;
      }
    </style>
  </defs>
  <g id="edit" transform="translate(0 0)">
    <path id="edit-2" data-name="edit" class="cls-1" d="M16.494,15.532l1.7-1.7-2.23-2.23-1.7,1.7v.821h1.408v1.408h.821Zm6.453-10.56a.3.3,0,0,0-.484.015L17.33,10.119a.333.333,0,1,0,.469.469l5.133-5.133a.3.3,0,0,0,.015-.484Zm-.235-2.112,4.224,4.224L17.081,16.94H12.857V12.716ZM29.225,4.8,27.876,6.145,23.652,1.92,25,.571A1.415,1.415,0,0,1,27,.571l2.23,2.23a1.358,1.358,0,0,1,.411,1,1.358,1.358,0,0,1-.411,1Z" transform="translate(-12.857 -0.16)"/>
  </g>
</svg>
