<svg xmlns="http://www.w3.org/2000/svg" width="18.652" height="16.072" viewBox="0 0 18.652 16.072">
  <defs>
    <style>
      .cls-1 {
        fill: #fff;
      }
    </style>
  </defs>
  <path id="Path_429" data-name="Path 429" class="cls-1" d="M15.728,17.732H11.043a.941.941,0,0,1-.941-.94V13.041H8.549v3.751a.941.941,0,0,1-.94.94H2.924a.941.941,0,0,1-.94-.94v-5.5H.9a.9.9,0,0,1-.84-.57.89.89,0,0,1,.223-.983L2.664,7.409v-4.4a.942.942,0,0,1,.94-.94H6.579A.943.943,0,0,1,7.52,3L8.685,1.911a.944.944,0,0,1,1.282,0l8.4,7.825a.9.9,0,0,1-.617,1.554h-1.08v5.5A.941.941,0,0,1,15.728,17.732Zm-4.215-1.411h3.744v-5.5a.94.94,0,0,1,.936-.941h.255L9.326,3.242l-3.217,3V3.482H4.075V7.608a.945.945,0,0,1-.282.671l-1.634,1.6h.3a.941.941,0,0,1,.938.941v5.5H7.138V12.571a.942.942,0,0,1,.94-.941h2.494a.942.942,0,0,1,.941.941Z" transform="translate(0 -1.66)"/>
</svg>
