<svg xmlns="http://www.w3.org/2000/svg" xmlns:xlink="http://www.w3.org/1999/xlink" width="24" height="24" viewBox="0 0 24 24">
  <defs>
    <style>
      .cls-1 {
        fill: none;
        stroke: #707070;
        stroke-width: 0.1px;
      }

      .cls-2 {
        clip-path: url(#clip-path);
      }

      .cls-3 {
        fill: #fff;
      }
    </style>
    <clipPath id="clip-path">
      <rect id="Rectangle_1774" data-name="Rectangle 1774" class="cls-1" width="24" height="24"/>
    </clipPath>
  </defs>
  <g id="Log_out_icon" data-name="Log out icon" class="cls-2">
    <path id="XMLID_593_" class="cls-3" d="M2004.724,2683.864v3.843a.807.807,0,0,0,.8.841h10.965a.841.841,0,0,0,.841-.841V2673.84a.84.84,0,0,0-.841-.84h-10.963a.807.807,0,0,0-.8.84v3.843a.84.84,0,1,0,1.681,0v-3h9.244v12.186h-9.244v-3a.841.841,0,0,0-1.683,0Zm-6.479-3.71,3.292-3.326a.841.841,0,0,1,1.2,1.183l-1.88,1.9,10.2.023a.841.841,0,0,1,0,1.681h0l-10.185-.023,1.869,1.889a.84.84,0,1,1-1.193,1.183l-3.292-3.326A.835.835,0,0,1,1998.244,2680.154Z" transform="translate(-1996.001 -2669)"/>
  </g>
</svg>
