<svg id="Group_1076" data-name="Group 1076" xmlns="http://www.w3.org/2000/svg" width="17.196" height="16.211" viewBox="0 0 17.196 16.211">
  <defs>
    <style>
      .cls-1 {
        fill: #fff;
      }
    </style>
  </defs>
  <path id="Path_430" data-name="Path 430" class="cls-1" d="M3.817,4.983H.876a.842.842,0,0,1-.84-.84V1.2a.842.842,0,0,1,.84-.84H3.817a.842.842,0,0,1,.84.84V4.143A.842.842,0,0,1,3.817,4.983ZM1.3,3.723H3.4v-2.1H1.3Z" transform="translate(-0.036 -0.362)"/>
  <path id="Path_431" data-name="Path 431" class="cls-1" d="M3.817,13.266H.876a.841.841,0,0,1-.84-.84V9.485a.842.842,0,0,1,.84-.84H3.817a.842.842,0,0,1,.84.84v2.941A.841.841,0,0,1,3.817,13.266ZM1.3,12.006H3.4v-2.1H1.3Z" transform="translate(-0.036 -2.85)"/>
  <path id="Path_432" data-name="Path 432" class="cls-1" d="M3.817,21.549H.876a.841.841,0,0,1-.84-.84V17.768a.841.841,0,0,1,.84-.84H3.817a.841.841,0,0,1,.84.84v2.941A.841.841,0,0,1,3.817,21.549ZM1.3,20.289H3.4v-2.1H1.3Z" transform="translate(-0.036 -5.338)"/>
  <path id="Path_433" data-name="Path 433" class="cls-1" d="M18.583,4.744H9.333c-.348,0-.63-.435-.63-.971s.282-.971.63-.971h9.249c.348,0,.63.435.63.971S18.93,4.744,18.583,4.744Z" transform="translate(-2.017 -1.507)"/>
  <path id="Path_434" data-name="Path 434" class="cls-1" d="M18.4,13.027H9.153c-.348,0-.629-.435-.629-.971s.282-.971.629-.971H18.4c.348,0,.63.435.63.971S18.751,13.027,18.4,13.027Z" transform="translate(-1.961 -3.991)"/>
  <path id="Path_435" data-name="Path 435" class="cls-1" d="M18.583,21.31H9.333c-.348,0-.63-.435-.63-.971s.282-.971.63-.971h9.249c.348,0,.63.435.63.971S18.93,21.31,18.583,21.31Z" transform="translate(-2.017 -6.483)"/>
</svg>
